<?xml version="1.0" encoding="UTF-8" standalone="no"?>
<svg width="207px" height="207px" viewBox="0 0 207 207" version="1.1" xmlns="http://www.w3.org/2000/svg" xmlns:xlink="http://www.w3.org/1999/xlink" xmlns:sketch="http://www.bohemiancoding.com/sketch/ns">
    <!-- Generator: Sketch 3.3.3 (12072) - http://www.bohemiancoding.com/sketch -->
    <title>dafault-cloud-lighterbg</title>
    <desc>Created with Sketch.</desc>
    <defs>
        <filter x="-50%" y="-50%" width="200%" height="200%" filterUnits="objectBoundingBox" id="filter-1">
            <feOffset dx="8" dy="8" in="SourceAlpha" result="shadowOffsetOuter1"></feOffset>
            <feGaussianBlur stdDeviation="5" in="shadowOffsetOuter1" result="shadowBlurOuter1"></feGaussianBlur>
            <feColorMatrix values="0 0 0 0 0   0 0 0 0 0   0 0 0 0 0  0 0 0 0.035 0" in="shadowBlurOuter1" type="matrix" result="shadowMatrixOuter1"></feColorMatrix>
            <feOffset dx="0" dy="-4" in="SourceAlpha" result="shadowOffsetInner1"></feOffset>
            <feGaussianBlur stdDeviation="7" in="shadowOffsetInner1" result="shadowBlurInner1"></feGaussianBlur>
            <feComposite in="shadowBlurInner1" in2="SourceAlpha" operator="arithmetic" k2="-1" k3="1" result="shadowInnerInner1"></feComposite>
            <feColorMatrix values="0 0 0 0 0.792456896   0 0 0 0 0.89998814   0 0 0 0 0.943000638  0 0 0 0.375283062 0" in="shadowInnerInner1" type="matrix" result="shadowMatrixInner1"></feColorMatrix>
            <feMerge>
                <feMergeNode in="shadowMatrixOuter1"></feMergeNode>
                <feMergeNode in="SourceGraphic"></feMergeNode>
                <feMergeNode in="shadowMatrixInner1"></feMergeNode>
            </feMerge>
        </filter>
    </defs>
    <g id="Page-1" stroke="none" stroke-width="1" fill="none" fill-rule="evenodd" sketch:type="MSPage">
        <g id="dafault-cloud-lighterbg" sketch:type="MSArtboardGroup">
            <g id="cloud" sketch:type="MSLayerGroup">
                <rect id="Rectangle-3" fill="#93D8F5" sketch:type="MSShapeGroup" x="0" y="0" width="207" height="207" rx="100"></rect>
                <path d="M150.012734,86.9364476 C148.822651,86.9364476 147.66066,87.0467816 146.51527,87.2056626 C146.653815,86.2530074 146.750222,85.2845902 146.750222,84.2941063 C146.750222,73.0703027 137.537296,63.9731079 126.172773,63.9731079 C119.908878,63.9731079 114.309616,66.7459586 110.535062,71.1057273 C105.136275,62.6339686 95.5887986,57 84.7037563,57 C67.85617,57 54.1976732,70.487857 54.1976732,87.1243306 C54.1976732,88.3594408 54.2819494,89.5750061 54.4281559,90.771657 C54.1740503,90.7628303 53.9250523,90.7338282 53.6690313,90.7338282 C41.1489022,90.7338282 31,100.755307 31,113.119018 C31,121.064956 35.2042351,128.026085 41.5236761,132 L164.082396,132 C170.671266,127.556378 175,120.08519 175,111.612171 C175,97.9837168 163.812968,86.9364476 150.012734,86.9364476 Z" id="top" fill="#FFFFFF" filter="url(#filter-1)" sketch:type="MSShapeGroup"></path>
            </g>
        </g>
    </g>
</svg>